<?xml version="1.0" encoding="utf-8"?>
<!-- Generator: Adobe Illustrator 20.1.0, SVG Export Plug-In . SVG Version: 6.00 Build 0)  -->
<svg version="1.1" id="Layer_1" xmlns="http://www.w3.org/2000/svg" xmlns:xlink="http://www.w3.org/1999/xlink" x="0px" y="0px"
	 viewBox="0 0 540 163" style="enable-background:new 0 0 540 163;" xml:space="preserve">
<style type="text/css">
	.st0{enable-background:new    ;}
	.st1{fill:#354A5F;}
	.st2{fill:#61C08F;}
</style>
<g>
	<g class="st0">
		<path class="st1" d="M48.5,121.3c-5.5,5.4-11.3,7.6-18.4,7.6c-13.9,0-25.4-8.3-25.4-25.3c0-17,11.5-25.3,25.4-25.3
			c6.8,0,12,1.9,17.3,7.1l-7.5,7.9c-2.8-2.5-6.3-3.8-9.6-3.8c-8,0-13.8,5.8-13.8,14.2c0,9.1,6.2,14,13.6,14c3.8,0,7.6-1.1,10.5-4
			L48.5,121.3z"/>
		<path class="st1" d="M108.2,103.5c0,13.8-9.4,24.9-24.9,24.9c-15.5,0-24.8-11.2-24.8-24.9c0-13.7,9.5-24.9,24.7-24.9
			S108.2,89.9,108.2,103.5z M70.3,103.5c0,7.3,4.4,14.1,13,14.1c8.6,0,13-6.8,13-14.1c0-7.2-5-14.2-13-14.2
			C74.7,89.4,70.3,96.4,70.3,103.5z"/>
		<path class="st1" d="M171.9,59.6v67.8h-11.1l-0.8-6.6c-3.7,5.7-9.6,7.7-15.4,7.7c-14.1,0-24.6-9.3-24.6-25c0-16.5,10.4-25,24.3-25
			c5,0,12.9,2.7,15.7,7.7V59.6H171.9z M131.8,103.4c0,8.3,6,14.1,13.6,14.1c7.5,0,13.9-5.4,13.9-14.1c0-8.3-6.4-14-13.9-14
			C137.9,89.5,131.8,94.8,131.8,103.4z"/>
		<path class="st1" d="M199.3,107.7c0.8,5.9,5.9,10.2,14.3,10.2c4.4,0,10.1-1.6,12.8-4.5l7.6,7.5c-5,5.2-13.3,7.8-20.6,7.8
			c-16.5,0-26.3-10.2-26.3-25.5c0-14.5,9.9-25,25.4-25c16,0,26,9.9,24.2,29.6H199.3z M225.3,97.9c-0.8-6.2-5.6-9.3-12.4-9.3
			c-6.4,0-11.6,3.1-13.4,9.3H225.3z"/>
		<path class="st1" d="M262.6,79.6l0.9,5.5c3.7-5.9,8.6-6.8,13.5-6.8c4.9,0,9.7,1.9,12.3,4.6l-5.3,10.3c-2.4-2-4.7-3.1-8.5-3.1
			c-6.2,0-11.9,3.3-11.9,12.1v25.2h-11.8V79.6H262.6z"/>
	</g>
	<g class="st0">
		<path class="st2" d="M417.1,74.7l8.7,6.6l-5.3,6.8c3.7,4.2,5,8.9,5,14.2c0,5.9-2.2,14.3-10.1,17.8c8,4,9.9,9.7,9.9,15.8
			c0,13.2-10.1,21.3-24,21.3s-24.2-8.4-24.2-21.3h11.7c0,6.2,5.7,10.3,12.5,10.3s12.1-3.7,12.1-10.3s-6.2-9.6-12.1-9.6
			c-14.9,0-24.2-9.1-24.2-24.1S388,78,401.4,78c3.8,0,7.7,0.5,11,2.7L417.1,74.7z M388.9,102.3c0,8.3,5.6,13.3,12.5,13.3
			c6.8,0,12.4-5,12.4-13.3s-5.6-13.5-12.4-13.5C394.5,88.8,388.9,93.9,388.9,102.3z"/>
		<path class="st2" d="M452,66.1c0,9.2-14,9.2-14,0C438,56.9,452,56.9,452,66.1z M439.1,79.4v48h11.8v-48H439.1z"/>
		<path class="st2" d="M478.4,79.6l0.9,5.5c3.7-5.9,8.6-6.8,13.5-6.8c4.9,0,9.7,1.9,12.3,4.6l-5.3,10.3c-2.4-2-4.7-3.1-8.5-3.1
			c-6.2,0-11.9,3.3-11.9,12.1v25.2h-11.8V79.6H478.4z"/>
		<path class="st2" d="M527.2,59.6v67.8h-11.7V59.6H527.2z"/>
	</g>
	<g>
		<g>
			<g>
				<g>
					<g>
						<path class="st1" d="M295.6,136.6h71.1v10.2h-71.1V136.6z"/>
					</g>
				</g>
			</g>
			<g>
				<g>
					<g>
						<path class="st1" d="M360.3,63l-8.4-12.5c0.9-11.2-0.7-26.2-19.3-44.4c-0.4-0.4-1-0.7-1.7-0.7l0,0c-0.7,0-1.3,0.2-1.7,0.7
							c-18.6,18.1-20.2,33.2-19.3,44.4L301.4,63c-0.3,0.4-0.4,0.9-0.2,1.4l6.5,23.8c0.2,0.8,1,1.4,1.9,1.5c0.1,0,0.2,0,0.3,0
							c0.8,0,1.6-0.4,2-1l6.5-9.9l10.4,32.9c0.3,0.8,1.1,1.3,2,1.4c0.9,0,1.7-0.6,2-1.4l10.4-32.9l6.5,9.9c0.4,0.6,1.2,1,2,1
							c0.1,0,0.2,0,0.3,0c0.9-0.1,1.7-0.7,1.9-1.5l6.5-23.8C360.7,64,360.6,63.4,360.3,63L360.3,63z M316.6,73.6l-5.8,8.9l-5-18.2
							l5.6-8.4l5.4,17.5C316.7,73.5,316.6,73.5,316.6,73.6L316.6,73.6z M330.8,104.3l-7.1-23.1h3.5l3.6,11.7l3.6-11.7h3.5
							L330.8,104.3L330.8,104.3z M343.3,63.3l-1.4,4.6l0,0l-2.6,8.5l-0.2,0.8h-16.4l-0.2-0.8l-2.6-8.5l0,0l-1.4-4.6l-4-13.1
							c0,0,0,0,0-0.1c-0.7-10.1,0.7-23.5,16.5-39.7l0,0l0,0c15.8,16.2,17.3,29.6,16.5,39.7c0,0,0,0,0,0.1L343.3,63.3L343.3,63.3z
							 M350.9,82.5l-5.8-8.9c0-0.1-0.1-0.1-0.2-0.2l5.4-17.5l5.6,8.4L350.9,82.5L350.9,82.5z"/>
					</g>
				</g>
			</g>
		</g>
		<g>
			<g>
				<path class="st2" d="M335.7,35.2l2.5,1.9l-1.5,1.9c1.1,1.2,1.4,2.6,1.4,4.1c0,1.7-0.6,4.1-2.9,5.1c2.3,1.1,2.8,2.8,2.8,4.5
					c0,3.8-2.9,6.1-6.9,6.1s-6.9-2.4-6.9-6.1h3.4c0,1.8,1.6,2.9,3.6,2.9s3.5-1.1,3.5-2.9c0-1.9-1.8-2.7-3.5-2.7
					c-4.3,0-6.9-2.6-6.9-6.9s3.1-6.9,6.9-6.9c1.1,0,2.2,0.1,3.1,0.8L335.7,35.2z M327.6,43.1c0,2.4,1.6,3.8,3.6,3.8
					c1.9,0,3.6-1.4,3.6-3.8c0-2.4-1.6-3.9-3.6-3.9C329.2,39.2,327.6,40.7,327.6,43.1z"/>
			</g>
		</g>
	</g>
</g>
</svg>
